<?xml version="1.0" encoding="UTF-8" standalone="no"?>
<!-- Created with Inkscape (http://www.inkscape.org/) -->

<svg
   version="1.1"
   id="svg1"
   width="1440"
   height="1440"
   viewBox="0 0 1440 1440"
   sodipodi:docname="logo.svg"
   inkscape:version="1.3 (0e150ed, 2023-07-21)"
   xmlns:inkscape="http://www.inkscape.org/namespaces/inkscape"
   xmlns:sodipodi="http://sodipodi.sourceforge.net/DTD/sodipodi-0.dtd"
   xmlns="http://www.w3.org/2000/svg"
   xmlns:svg="http://www.w3.org/2000/svg">
  <defs
     id="defs1" />
  <sodipodi:namedview
     id="namedview1"
     pagecolor="#ffffff"
     bordercolor="#000000"
     borderopacity="0.25"
     inkscape:showpageshadow="2"
     inkscape:pageopacity="0.0"
     inkscape:pagecheckerboard="0"
     inkscape:deskcolor="#d1d1d1"
     inkscape:zoom="0.28901195"
     inkscape:cx="346.00646"
     inkscape:cy="683.36275"
     inkscape:window-width="1680"
     inkscape:window-height="928"
     inkscape:window-x="0"
     inkscape:window-y="25"
     inkscape:window-maximized="1"
     inkscape:current-layer="g1" />
  <g
     inkscape:groupmode="layer"
     inkscape:label="Image"
     id="g1">
    <path
       style="fill:#0000ff;stroke:#090909;stroke-width:1.82549"
       d="m 1001.3226,83.741445 c 2.0533,0.5639 11.1503,40.125905 36.3653,158.149405 50.5501,236.6082 45.9634,217.4225 52.3054,218.7914 2.9381,0.6343 30.6021,1.2504 61.4757,1.3692 l 56.1337,0.2159 v 95.5601 95.56008 l -32.5116,1.25581 c -34.9385,1.34955 -41.9478,2.4366 -44.7928,6.94678 -2.283,3.61925 -1.0724,9.83611 40.7772,209.40256 18.082,86.2265 32.8762,158.00992 32.8762,159.51862 0,1.5087 -1.2993,3.2417 -2.8875,3.8511 -1.5881,0.6095 -40.96,1.1081 -87.493,1.1081 -74.4801,0 -84.9488,-0.3433 -87.4741,-2.8686 -1.5777,-1.5778 -2.8686,-3.0483 -2.8686,-3.2679 0,-3.2915 -71.66081,-358.29667 -73.36641,-363.45455 -2.9913,-9.04606 -5.2351,-9.62601 -43.4648,-11.2345 -26.0738,-1.09703 -28.6089,-0.92051 -32.2924,2.24867 -5.141,4.42304 -7.2476,14.12704 -36.0163,165.90755 -36.7181,193.72033 -39.9263,209.86113 -41.9938,211.27223 -2.4373,1.6635 -108.5641,1.811 -140.2512,0.195 l -23.2806,-1.1874 -1.7423,-6.5636 c -1.5936,-6.0029 -56.6795,-295.05101 -65.9596,-346.10426 -2.5355,-13.94909 -5.0512,-22.8011 -6.926,-24.3706 -2.3176,-1.94024 -9.5481,-2.27065 -33.9774,-1.55267 -17.0683,0.50164 -33.3071,1.80141 -36.0861,2.88838 -6.2684,2.45176 -7.3406,5.27097 -14.9719,39.36808 -6.2344,27.85562 -42.1145,211.30461 -55.717,284.87225 -10.3777,56.12622 -8.3393,50.81592 -20.1602,52.51962 -12.5152,1.8037 -167.0822,0.9176 -168.9665,-0.9686 -2.2209,-2.2233 2.8277,-28.0475 52.9046,-270.60952 20.9573,-101.51247 21.0501,-102.11503 16.1303,-104.74801 -2.0173,-1.07961 -19.7741,-2.52068 -39.4596,-3.20237 l -35.7918,-1.23944 v -95.28781 -95.2878 l 58.0728,-0.9287 c 35.9279,-0.5746 59.4642,-1.6733 61.7215,-2.8814 4.8545,-2.598 0.5069,16.5649 67.1765,-296.0971 17.601,-82.543905 16.2057,-77.784005 23.2125,-79.185405 3.1243,-0.6249 40.0507,-1.1361 82.0586,-1.1361 87.3598,0 77.8624,-2.2097 82.8695,19.280705 1.623,6.9659 16.406,76.3292 32.8511,154.1406 41.1901,194.8948 42.0624,198.8379 44.5312,201.3067 2.5468,2.5467 24.3133,4.6214 50.6563,4.8283 21.8228,0.1714 29.4402,-1.0756 31.6362,-5.1788 0.8878,-1.6589 14.4724,-63.7767 30.1879,-138.0396 34.4281,-162.6876 47.563,-222.972995 49.948,-229.245995 1.6124,-4.24091 3.0338,-4.82771 14.2638,-5.88811 13.3526,-1.2609 145.7183,-1.2858 150.29721,-0.028 z"
       id="path5" />
    <path
       style="fill:#0000ff;stroke:#090909;stroke-width:0.324107"
       d=""
       id="path6" />
    <path
       style="fill:#0000ff;stroke:#090909;stroke-width:2.48388"
       d="m 498.0171,1256.8412 v -98.1131 h 18.16362 18.16362 l 5.65252,12.9453 c 3.10889,7.12 8.23908,19.6946 11.40044,27.9436 12.45169,32.4907 16.16607,38.9451 21.93914,38.123 5.25767,-0.7486 5.42547,-1.8477 6.09067,-39.8909 l 0.68404,-39.121 h 18.56599 18.566 v 98.1131 98.1131 h -19.87101 c -10.97136,0 -19.871,-1.0628 -19.871,-2.3729 0,-2.4417 -18.5751,-47.645 -27.41724,-66.7211 -3.96944,-8.5637 -6.08584,-10.5643 -10.51043,-9.9355 -5.42931,0.7716 -5.55385,1.5701 -6.2242,39.9084 l -0.68404,39.1211 H 515.34116 498.0171 Z"
       id="path7" />
    <path
       style="fill:#0000ff;stroke:#090909;stroke-width:2.48388"
       d="m 632.20565,1349.3655 c 0.0326,-3.0738 1.17628,-10.0597 2.54153,-15.5242 2.49363,-9.9809 12.55615,-59.616 27.33542,-134.8364 l 7.94742,-40.4492 23.85746,0.7072 23.85745,0.7071 17.69878,88.1776 c 9.73432,48.4977 18.46891,92.3691 19.41018,97.4921 l 1.7114,9.3146 h -18.42162 -18.42162 l -1.70082,-13.0404 c -3.33933,-25.6031 -1.9702,-24.2178 -23.93466,-24.2178 h -19.48918 l -1.58954,9.3146 c -0.87424,5.1229 -2.64459,13.506 -3.9341,18.629 l -2.34457,9.3146 h -17.29139 c -16.29346,0 -17.28798,-0.3226 -17.23214,-5.5888 z m 72.38546,-70.1678 c 0.68215,-0.6821 -0.47854,-11.3007 -2.57932,-23.5968 -2.93438,-17.1753 -4.7347,-22.3566 -7.76817,-22.3566 -2.94657,0 -5.02632,5.2001 -8.19566,20.492 -5.72665,27.6308 -5.95421,26.7017 6.53941,26.7017 5.91991,0 11.32159,-0.5581 12.00374,-1.2403 z"
       id="path8" />
    <path
       style="fill:#0000ff;stroke:#090909;stroke-width:2.48388"
       d="m 771.24344,1256.8412 v -98.1131 h 26.90207 26.90208 l 6.89927,30.4274 c 12.26891,54.1089 10.27968,49.4504 20.74281,48.5776 l 9.1459,-0.7629 5.6227,-24.8388 c 3.09249,-13.6613 6.93804,-31.2658 8.54568,-39.121 l 2.92299,-14.2823 h 26.88421 26.88422 v 98.1131 98.1131 h -17.38713 -17.38713 v -39.7421 -39.742 h -8.52619 c -6.01018,0 -8.8779,1.2827 -9.71811,4.3468 -0.65556,2.3907 -4.84789,20.3289 -9.31629,39.8626 l -8.12437,35.5158 -10.05583,-0.7415 c -11.36621,-0.8382 -9.63934,3.2776 -22.19649,-52.903 l -5.55181,-24.8387 -9.20716,-0.7709 -9.20716,-0.771 v 39.892 39.892 h -17.38713 -17.38713 z"
       id="path9" />
    <path
       style="fill:#0000ff;stroke:#090909;stroke-width:2.48388"
       d="m 948.78798,1349.3655 c 0.7062,-3.0738 9.15327,-45.2686 18.77127,-93.7663 9.61799,-48.4977 18.07876,-90.1336 18.80171,-92.5244 1.13061,-3.7388 4.58453,-4.3467 24.69654,-4.3467 22.2252,0 23.4434,0.2765 24.6208,5.5887 0.6813,3.0738 4.0473,20.1194 7.4799,37.8791 9.7586,50.4893 28.6601,143.6011 30.1272,148.4116 1.1796,3.8679 -0.7015,4.3468 -17.0755,4.3468 h -18.4012 l -3.056,-14.2823 c -5.3915,-25.1981 -3.2711,-23.2653 -24.6356,-22.4558 l -19.05065,0.7219 -3.59627,18.0081 -3.59627,18.0081 h -18.18497 c -17.58301,0 -18.14246,-0.185 -16.90096,-5.5888 z m 72.24462,-81.9108 c -4.943,-37.262 -12.6166,-44.4737 -17.8901,-16.8132 -1.6919,8.8743 -3.14509,19.209 -3.22932,22.9658 -0.14552,6.4899 0.42042,6.8307 11.34432,6.8307 h 11.4974 z"
       id="path10" />
    <path
       style="fill:#0000ff;stroke:#090909;stroke-width:2.48388"
       d="m 1086.6957,1353.0728 c 0,-1.0347 8.383,-22.4687 18.629,-47.631 10.246,-25.1623 18.6291,-47.1274 18.6291,-48.8114 0,-1.684 -7.905,-22.4449 -17.5667,-46.1353 -9.6617,-23.6904 -18.1876,-45.077 -18.9464,-47.5258 -1.2612,-4.0702 0.3768,-4.39 19.08,-3.7258 l 20.4597,0.7265 11.5162,30.4311 c 6.3339,16.7371 12.4258,30.1279 13.5376,29.7573 2.1838,-0.7279 10.2718,-19.7117 19.3307,-45.3722 l 5.669,-16.0581 h 20.9193 c 15.7372,0 20.614,0.7691 19.6864,3.1048 -0.6781,1.7077 -9.2609,22.528 -19.0729,46.2674 -9.812,23.7394 -17.9769,44.9792 -18.1441,47.1995 -0.2792,3.7056 24.4215,67.8502 31.6792,82.2673 8.7389,17.3593 8.7158,17.3878 -14.0853,17.3807 l -20.6594,-0.01 -7.1966,-20.3753 c -3.9582,-11.2064 -9.7039,-26.0136 -12.7683,-32.9049 -6.4721,-14.5548 -4.3063,-17.2717 -21.1972,26.5914 l -10.2823,26.7017 h -19.6085 c -10.7847,0 -19.6085,-0.8467 -19.6085,-1.8815 z"
       id="path11" />
    <path
       style="fill:#0000ff;stroke:#090909;stroke-width:2.48388"
       d="m 386.66675,1198.8168 8.46907,39.121 12.99286,0.7508 12.99286,0.7508 v 18.4992 18.4993 h -7.03766 c -3.8707,0 -7.59734,0.5597 -8.28142,1.2438 -0.68408,0.6841 1.32663,14.3764 4.46824,30.4275 3.14161,16.051 6.45224,33.3752 7.35695,38.4982 l 1.64493,9.3145 h -18.51414 -18.51413 l -4.31852,-25.4597 c -2.37519,-14.0028 -5.26374,-28.813 -6.41901,-32.9113 -1.15526,-4.0984 -2.78103,-10.5255 -3.61282,-14.2823 -1.21959,-5.5084 -2.88858,-6.8307 -8.62177,-6.8307 -7.86741,0 -9.36359,3.6998 -15.06684,37.2581 -1.50914,8.8799 -3.90126,22.0134 -5.31584,29.1856 l -2.57196,13.0403 h -17.21103 c -9.46607,0 -17.21103,-0.5501 -17.21103,-1.2225 0,-1.2714 -11.68933,-62.7579 -13.84469,-72.8238 -1.02099,-4.7682 -2.57673,-5.6091 -9.19131,-4.9677 l -7.9623,0.7719 -5.41949,29.9517 c -2.98071,16.4735 -6.4127,33.7985 -7.62664,38.5001 l -2.20715,8.5484 -17.85816,0.7298 c -14.56508,0.5952 -17.85816,0.041 -17.85816,-3.0072 0,-2.0553 3.39308,-18.9127 7.54018,-37.4609 4.1471,-18.5481 6.87549,-34.7993 6.0631,-36.1138 -0.8124,-1.3145 -4.76435,-2.39 -8.78212,-2.39 h -7.30503 v -18.6291 -18.629 h 12.27278 c 6.75004,0 12.91801,-1.044 13.70661,-2.32 1.12688,-1.8233 16.24649,-72.84 16.24649,-76.3096 0,-0.9651 34.71996,-1.1975 34.87257,-0.2335 0.0541,0.3415 3.68674,17.946 8.07259,39.1211 l 7.9743,38.5 9.31453,0.7709 c 8.13835,0.6736 9.31454,0.09 9.31454,-4.6183 0,-2.9642 2.67355,-16.724 5.94122,-30.5775 3.26768,-13.8534 6.67156,-29.3796 7.56418,-34.5026 l 1.62295,-9.3146 h 16.9256 16.92559 z"
       id="path12" />
    <path
       style="fill:#0000ff;stroke:#090909;stroke-width:2.48388"
       d="m 443.37183,1256.8412 v -98.1131 h 17.38713 17.38713 v 98.1131 98.1131 h -17.38713 -17.38713 z"
       id="path13" />
  </g>
</svg>
